<svg data-v-fde0c5aa="" xmlns="http://www.w3.org/2000/svg" viewBox="0 0 300 300" class="iconLeft"><!----><defs data-v-fde0c5aa=""><!----></defs><rect data-v-fde0c5aa="" fill="#FFFFFF" x="0" y="0" width="300px" height="300px" class="logo-background-square"></rect><defs data-v-fde0c5aa=""><!----></defs><g data-v-fde0c5aa="" id="056b9a9f-5433-44f2-9f48-71633a487009" fill="#361414" transform="matrix(2.74590438403145,0,0,2.74590438403145,93.26868637772402,119.75386357651135)"><path d="M2.63 6.78L2.63 16.19L1.31 16.19L1.31 5.69L3.62 5.69L13.24 14.88L13.24 5.69L14.55 5.69L14.55 16.19L12.80 16.19L2.63 6.78ZM16.52 12.20L16.52 12.20L16.52 12.20Q16.52 10.99 16.78 10.19L16.78 10.19L16.78 10.19Q17.04 9.40 17.62 8.93L17.62 8.93L17.62 8.93Q18.19 8.47 19.11 8.28L19.11 8.28L19.11 8.28Q20.02 8.09 21.33 8.09L21.33 8.09L21.33 8.09Q22.65 8.09 23.56 8.28L23.56 8.28L23.56 8.28Q24.48 8.47 25.05 8.93L25.05 8.93L25.05 8.93Q25.63 9.40 25.89 10.19L25.89 10.19L25.89 10.19Q26.15 10.99 26.15 12.20L26.15 12.20L26.15 12.20Q26.15 13.41 25.89 14.21L25.89 14.21L25.89 14.21Q25.63 15.00 25.05 15.48L25.05 15.48L25.05 15.48Q24.48 15.95 23.56 16.14L23.56 16.14L23.56 16.14Q22.65 16.34 21.33 16.34L21.33 16.34L21.33 16.34Q20.02 16.34 19.11 16.14L19.11 16.14L19.11 16.14Q18.19 15.95 17.62 15.48L17.62 15.48L17.62 15.48Q17.04 15.00 16.78 14.21L16.78 14.21L16.78 14.21Q16.52 13.41 16.52 12.20ZM17.83 12.20L17.83 12.20L17.83 12.20Q17.83 12.85 17.88 13.34L17.88 13.34L17.88 13.34Q17.93 13.82 18.06 14.17L18.06 14.17L18.06 14.17Q18.20 14.52 18.44 14.74L18.44 14.74L18.44 14.74Q18.68 14.96 19.07 15.09L19.07 15.09L19.07 15.09Q19.46 15.22 20.01 15.26L20.01 15.26L20.01 15.26Q20.57 15.31 21.33 15.31L21.33 15.31L21.33 15.31Q21.99 15.31 22.51 15.28L22.51 15.28L22.51 15.28Q23.02 15.25 23.41 15.14L23.41 15.14L23.41 15.14Q23.80 15.03 24.07 14.83L24.07 14.83L24.07 14.83Q24.34 14.63 24.51 14.28L24.51 14.28L24.51 14.28Q24.68 13.93 24.76 13.42L24.76 13.42L24.76 13.42Q24.83 12.91 24.83 12.20L24.83 12.20L24.83 12.20Q24.83 11.49 24.76 11.00L24.76 11.00L24.76 11.00Q24.68 10.50 24.51 10.17L24.51 10.17L24.51 10.17Q24.34 9.83 24.07 9.64L24.07 9.64L24.07 9.64Q23.80 9.44 23.41 9.34L23.41 9.34L23.41 9.34Q23.02 9.24 22.51 9.21L22.51 9.21L22.51 9.21Q21.99 9.19 21.33 9.19L21.33 9.19L21.33 9.19Q20.68 9.19 20.16 9.21L20.16 9.21L20.16 9.21Q19.65 9.24 19.26 9.34L19.26 9.34L19.26 9.34Q18.87 9.44 18.60 9.64L18.60 9.64L18.60 9.64Q18.33 9.83 18.16 10.17L18.16 10.17L18.16 10.17Q17.99 10.50 17.91 11.00L17.91 11.00L17.91 11.00Q17.83 11.49 17.83 12.20ZM34.24 12.69L35.33 12.69L35.33 12.69Q35.33 13.69 35.17 14.37L35.17 14.37L35.17 14.37Q35.01 15.04 34.62 15.44L34.62 15.44L34.62 15.44Q34.23 15.85 33.61 16.02L33.61 16.02L33.61 16.02Q32.98 16.19 32.05 16.19L32.05 16.19L32.05 16.19Q31.16 16.19 30.55 16.05L30.55 16.05L30.55 16.05Q29.94 15.91 29.57 15.59L29.57 15.59L29.57 15.59Q29.19 15.26 29.03 14.71L29.03 14.71L29.03 14.71Q28.86 14.16 28.86 13.34L28.86 13.34L28.86 9.39L27.24 9.39L27.24 8.31L28.86 8.31L28.86 6.16L30.17 6.16L30.17 8.31L35.12 8.31L35.12 9.39L30.17 9.39L30.17 13.34L30.17 13.34Q30.17 14 30.27 14.36L30.27 14.36L30.27 14.36Q30.37 14.71 30.59 14.88L30.59 14.88L30.59 14.88Q30.81 15.04 31.17 15.07L31.17 15.07L31.17 15.07Q31.53 15.09 32.05 15.09L32.05 15.09L32.05 15.09Q32.46 15.09 32.78 15.08L32.78 15.08L32.78 15.08Q33.11 15.07 33.35 14.99L33.35 14.99L33.35 14.99Q33.59 14.92 33.76 14.78L33.76 14.78L33.76 14.78Q33.93 14.63 34.04 14.36L34.04 14.36L34.04 14.36Q34.15 14.10 34.19 13.69L34.19 13.69L34.19 13.69Q34.24 13.28 34.24 12.69L34.24 12.69ZM37.52 16.19L37.52 8.31L38.83 8.31L38.83 16.19L37.52 16.19ZM38.83 5.69L38.83 7L37.52 7L37.52 5.69L38.83 5.69ZM40.80 12.26L40.80 12.26L40.80 12.26Q40.80 11.44 40.89 10.81L40.89 10.81L40.89 10.81Q40.97 10.19 41.18 9.72L41.18 9.72L41.18 9.72Q41.38 9.26 41.74 8.94L41.74 8.94L41.74 8.94Q42.09 8.63 42.63 8.44L42.63 8.44L42.63 8.44Q43.16 8.25 43.90 8.17L43.90 8.17L43.90 8.17Q44.64 8.09 45.62 8.09L45.62 8.09L45.62 8.09Q46.94 8.09 47.78 8.25L47.78 8.25L47.78 8.25Q48.63 8.41 49.12 8.74L49.12 8.74L49.12 8.74Q49.62 9.07 49.81 9.58L49.81 9.58L49.81 9.58Q50.00 10.09 50.00 10.79L50.00 10.79L48.69 10.79L48.69 10.79Q48.69 10.54 48.67 10.32L48.67 10.32L48.67 10.32Q48.66 10.10 48.57 9.93L48.57 9.93L48.57 9.93Q48.49 9.75 48.30 9.61L48.30 9.61L48.30 9.61Q48.12 9.47 47.78 9.37L47.78 9.37L47.78 9.37Q47.43 9.28 46.91 9.23L46.91 9.23L46.91 9.23Q46.39 9.18 45.62 9.18L45.62 9.18L45.62 9.18Q44.75 9.18 44.15 9.24L44.15 9.24L44.15 9.24Q43.55 9.30 43.16 9.44L43.16 9.44L43.16 9.44Q42.77 9.58 42.56 9.82L42.56 9.82L42.56 9.82Q42.35 10.06 42.25 10.40L42.25 10.40L42.25 10.40Q42.16 10.74 42.14 11.20L42.14 11.20L42.14 11.20Q42.12 11.66 42.12 12.26L42.12 12.26L42.12 12.26Q42.12 12.85 42.14 13.31L42.14 13.31L42.14 13.31Q42.16 13.76 42.25 14.10L42.25 14.10L42.25 14.10Q42.35 14.44 42.56 14.67L42.56 14.67L42.56 14.67Q42.77 14.90 43.16 15.05L43.16 15.05L43.16 15.05Q43.55 15.19 44.15 15.25L44.15 15.25L44.15 15.25Q44.75 15.31 45.62 15.31L45.62 15.31L45.62 15.31Q46.39 15.31 46.91 15.26L46.91 15.26L46.91 15.26Q47.43 15.20 47.78 15.10L47.78 15.10L47.78 15.10Q48.12 15.00 48.30 14.85L48.30 14.85L48.30 14.85Q48.49 14.70 48.57 14.50L48.57 14.50L48.57 14.50Q48.66 14.31 48.67 14.07L48.67 14.07L48.67 14.07Q48.69 13.84 48.69 13.56L48.69 13.56L50.00 13.56L50.00 13.56Q50.00 14.28 49.81 14.81L49.81 14.81L49.81 14.81Q49.62 15.33 49.12 15.67L49.12 15.67L49.12 15.67Q48.63 16.01 47.78 16.17L47.78 16.17L47.78 16.17Q46.94 16.34 45.62 16.34L45.62 16.34L45.62 16.34Q44.64 16.34 43.90 16.26L43.90 16.26L43.90 16.26Q43.16 16.17 42.63 15.99L42.63 15.99L42.63 15.99Q42.09 15.80 41.74 15.49L41.74 15.49L41.74 15.49Q41.38 15.18 41.18 14.73L41.18 14.73L41.18 14.73Q40.97 14.28 40.89 13.67L40.89 13.67L40.89 13.67Q40.80 13.06 40.80 12.26ZM56.34 16.34L56.34 16.34L56.34 16.34Q55.03 16.34 54.11 16.16L54.11 16.16L54.11 16.16Q53.20 15.98 52.62 15.53L52.62 15.53L52.62 15.53Q52.05 15.09 51.79 14.34L51.79 14.34L51.79 14.34Q51.53 13.60 51.53 12.47L51.53 12.47L51.53 12.47Q51.53 11.18 51.79 10.33L51.79 10.33L51.79 10.33Q52.05 9.49 52.62 8.99L52.62 8.99L52.62 8.99Q53.20 8.49 54.11 8.29L54.11 8.29L54.11 8.29Q55.03 8.09 56.34 8.09L56.34 8.09L56.34 8.09Q57.28 8.09 57.97 8.23L57.97 8.23L57.97 8.23Q58.65 8.37 59.14 8.63L59.14 8.63L59.14 8.63Q59.63 8.89 59.93 9.26L59.93 9.26L59.93 9.26Q60.24 9.63 60.41 10.03L60.41 10.03L60.41 10.03Q60.59 10.44 60.65 10.99L60.65 10.99L60.65 10.99Q60.72 11.53 60.72 12.14L60.72 12.14L60.61 12.58L52.84 12.58L52.84 12.58Q52.84 13.48 53.02 14.06L53.02 14.06L53.02 14.06Q53.20 14.64 53.61 14.90L53.61 14.90L53.61 14.90Q54.02 15.17 54.69 15.24L54.69 15.24L54.69 15.24Q55.36 15.31 56.34 15.31L56.34 15.31L56.34 15.31Q57.24 15.31 57.84 15.26L57.84 15.26L57.84 15.26Q58.43 15.21 58.78 15.07L58.78 15.07L58.78 15.07Q59.12 14.92 59.26 14.67L59.26 14.67L59.26 14.67Q59.40 14.41 59.40 14L59.40 14L60.72 14L60.72 14Q60.72 14.64 60.49 15.08L60.49 15.08L60.49 15.08Q60.27 15.53 59.76 15.81L59.76 15.81L59.76 15.81Q59.25 16.08 58.41 16.21L58.41 16.21L58.41 16.21Q57.57 16.34 56.34 16.34ZM56.34 9.19L56.34 9.19L56.34 9.19Q55.69 9.19 55.17 9.21L55.17 9.21L55.17 9.21Q54.65 9.24 54.27 9.33L54.27 9.33L54.27 9.33Q53.88 9.43 53.61 9.60L53.61 9.60L53.61 9.60Q53.33 9.78 53.17 10.01L53.17 10.01L53.17 10.01Q53.00 10.25 52.92 10.67L52.92 10.67L52.92 10.67Q52.84 11.10 52.84 11.70L52.84 11.70L59.40 11.70L59.40 11.70Q59.40 10.90 59.23 10.45L59.23 10.45L59.23 10.45Q59.06 9.99 58.69 9.70L58.69 9.70L58.69 9.70Q58.32 9.41 57.74 9.30L57.74 9.30L57.74 9.30Q57.16 9.19 56.34 9.19Z"></path></g><defs data-v-fde0c5aa=""><linearGradient data-v-fde0c5aa="" gradientTransform="rotate(25)" id="ec142c99-d0fd-4218-bcf2-982957c37a44" x1="0%" y1="0%" x2="100%" y2="0%"><stop data-v-fde0c5aa="" offset="0%" stop-color="#F00079" stop-opacity="1"></stop><stop data-v-fde0c5aa="" offset="100%" stop-color="#F2A041" stop-opacity="1"></stop></linearGradient></defs><g data-v-fde0c5aa="" id="cedb5810-191b-4a9f-af5f-afd008e9793d" stroke="none" fill="url(#ec142c99-d0fd-4218-bcf2-982957c37a44)" transform="matrix(0.4873980107075925,0,0,0.4873980107075925,37.56300994646204,125.63009946462036)"><path d="M95 52c0-12.871-5.692-24.431-14.682-32.318C72.431 10.692 60.871 5 48 5 24.29 5 5 24.29 5 48c0 12.868 5.69 24.426 14.677 32.313C27.564 89.306 39.126 95 52 95c.084 0 .166-.006.25-.006s.166.006.25.006C75.972 95 95 75.972 95 52.5c0-.084-.006-.166-.006-.25S95 52.084 95 52zM21.828 73.371a36.786 36.786 0 0 1-6.822-21.121c.135-20.511 16.732-37.109 37.244-37.244a36.784 36.784 0 0 1 21.121 6.822C80.224 28.473 84.5 37.758 84.5 48c0 20.126-16.374 36.5-36.5 36.5-10.242 0-19.527-4.276-26.172-11.129zM6 48C6 24.841 24.841 6 48 6c9.858 0 18.926 3.422 26.1 9.13A42.74 42.74 0 0 0 52 9C28.29 9 9 28.29 9 52a42.741 42.741 0 0 0 6.127 22.095C9.421 66.923 6 57.856 6 48zm46 41c-10.08 0-19.227-4.055-25.905-10.615C32.269 82.854 39.838 85.5 48 85.5c20.678 0 37.5-16.822 37.5-37.5 0-8.162-2.646-15.731-7.115-21.905C84.945 32.773 89 41.92 89 52c0 20.402-16.598 37-37 37z"></path></g><!----></svg>